G04 #@! TF.FileFunction,Legend,Bot*
%FSLAX46Y46*%
G04 Gerber Fmt 4.6, Leading zero omitted, Abs format (unit mm)*
G04 Created by KiCad (PCBNEW 4.0.6-e0-6349~53~ubuntu16.04.1) date Thu May 25 22:23:32 2017*
%MOMM*%
%LPD*%
G01*
G04 APERTURE LIST*
%ADD10C,0.150000*%
G04 APERTURE END LIST*
D10*
X174030000Y-105310000D02*
X123230000Y-105310000D01*
X125770000Y-100230000D02*
X174030000Y-100230000D01*
X174030000Y-105310000D02*
X174030000Y-100230000D01*
X123230000Y-105310000D02*
X123230000Y-102770000D01*
X122950000Y-101500000D02*
X122950000Y-99950000D01*
X123230000Y-102770000D02*
X125770000Y-102770000D01*
X125770000Y-102770000D02*
X125770000Y-100230000D01*
X122950000Y-99950000D02*
X124500000Y-99950000D01*
X121952381Y-100261905D02*
X120952381Y-100261905D01*
X120952381Y-100642858D01*
X121000000Y-100738096D01*
X121047619Y-100785715D01*
X121142857Y-100833334D01*
X121285714Y-100833334D01*
X121380952Y-100785715D01*
X121428571Y-100738096D01*
X121476190Y-100642858D01*
X121476190Y-100261905D01*
X120952381Y-101166667D02*
X120952381Y-101785715D01*
X121333333Y-101452381D01*
X121333333Y-101595239D01*
X121380952Y-101690477D01*
X121428571Y-101738096D01*
X121523810Y-101785715D01*
X121761905Y-101785715D01*
X121857143Y-101738096D01*
X121904762Y-101690477D01*
X121952381Y-101595239D01*
X121952381Y-101309524D01*
X121904762Y-101214286D01*
X121857143Y-101166667D01*
M02*
