M48
;DRILL file {KiCad 4.0.6-e0-6349~53~ubuntu16.04.1} date Thu May 25 22:24:04 2017
;FORMAT={-:-/ absolute / metric / decimal}
FMAT,2
METRIC,TZ
T1C0.400
T2C0.600
T3C0.800
T4C0.800
T5C1.000
T6C1.001
T7C1.016
T8C1.321
T9C2.540
T10C9.650
%
G90
G05
M71
T1
X88.142Y-83.973
X91.828Y-95.56
X120.561Y-97.963
X122.366Y-105.15
X122.74Y-95.419
X123.633Y-86.92
X127.215Y-77.837
X130.415Y-97.443
X133.159Y-99.826
X146.33Y-92.917
X149.296Y-93.459
X162.278Y-76.632
X167.725Y-98.63
X173.042Y-97.852
T2
X141.365Y-58.95
X141.365Y-84.35
X142.635Y-58.95
X142.635Y-84.35
X143.905Y-58.95
X143.905Y-84.35
X145.175Y-58.95
X145.175Y-84.35
X146.445Y-58.95
X146.445Y-84.35
X147.715Y-58.95
X147.715Y-84.35
X148.985Y-58.95
X148.985Y-84.35
X150.255Y-58.95
X150.255Y-84.35
X151.525Y-58.95
X151.525Y-84.35
X152.795Y-58.95
X152.795Y-84.35
X154.065Y-58.95
X154.065Y-84.35
X155.335Y-58.95
X155.335Y-84.35
X156.605Y-58.95
X156.605Y-84.35
X157.875Y-58.95
X157.875Y-84.35
X159.145Y-58.95
X159.145Y-84.35
X160.415Y-58.95
X160.415Y-84.35
X161.685Y-58.95
X161.685Y-84.35
X162.955Y-58.95
X162.955Y-84.35
T3
X90.25Y-80.25
X90.25Y-82.79
X90.25Y-85.33
X107.5Y-60.
X107.5Y-62.54
X107.5Y-65.08
X107.5Y-67.62
X107.5Y-70.16
X107.5Y-72.7
X107.5Y-75.24
X107.5Y-77.78
X107.5Y-80.32
X107.5Y-82.86
X107.5Y-85.4
X107.5Y-87.94
X107.5Y-90.48
X107.5Y-93.02
X115.12Y-60.
X115.12Y-62.54
X115.12Y-65.08
X115.12Y-67.62
X115.12Y-70.16
X115.12Y-72.7
X115.12Y-75.24
X115.12Y-77.78
X115.12Y-80.32
X115.12Y-82.86
X115.12Y-85.4
X115.12Y-87.94
X115.12Y-90.48
X115.12Y-93.02
T4
X102.75Y-79.059
X102.75Y-83.941
T5
X85.5Y-92.84
X85.5Y-95.38
X85.5Y-97.92
X85.5Y-100.46
X85.5Y-103.
X86.5Y-60.5
X86.5Y-63.04
X86.5Y-65.58
X86.5Y-68.12
X86.5Y-70.66
X86.5Y-73.2
X91.Y-97.92
X91.Y-100.46
X91.Y-103.
X95.5Y-75.75
X95.5Y-78.29
X95.5Y-80.83
X95.5Y-83.37
X95.5Y-85.91
X95.5Y-88.45
X95.5Y-90.99
X95.5Y-93.53
X103.25Y-62.71
X103.25Y-65.25
X113.665Y-109.22
X113.665Y-111.76
X116.205Y-109.22
X116.205Y-111.76
X118.745Y-109.22
X118.745Y-111.76
X119.495Y-63.5
X119.495Y-66.04
X119.495Y-68.58
X119.495Y-71.12
X119.495Y-73.66
X119.5Y-77.72
X119.5Y-80.26
X119.5Y-82.8
X119.5Y-85.34
X119.5Y-87.88
X119.5Y-90.42
X119.5Y-92.96
X119.5Y-95.5
X138.Y-48.
X140.54Y-48.
X143.08Y-48.
X144.Y-39.
X144.5Y-96.5
X145.62Y-48.
X146.54Y-39.
X147.04Y-96.5
X148.16Y-48.
X149.08Y-39.
X149.58Y-96.5
X150.7Y-48.
X151.62Y-39.
X152.12Y-96.5
X153.24Y-48.
X154.16Y-39.
X154.66Y-96.5
X155.78Y-48.
X156.7Y-39.
X158.32Y-48.
X160.86Y-48.
X165.25Y-109.25
X167.79Y-109.25
X170.33Y-109.25
X172.87Y-109.25
X176.5Y-66.25
X176.5Y-68.79
X176.5Y-71.33
X176.5Y-73.87
X176.5Y-76.41
T6
X91.Y-114.5
X93.54Y-114.5
T7
X85.5Y-123.
X85.5Y-125.54
X85.5Y-128.08
X124.5Y-101.5
X124.5Y-104.04
X127.04Y-101.5
X127.04Y-104.04
X129.58Y-101.5
X129.58Y-104.04
X132.12Y-101.5
X132.12Y-104.04
X134.66Y-101.5
X134.66Y-104.04
X137.2Y-101.5
X137.2Y-104.04
X139.74Y-101.5
X139.74Y-104.04
X142.28Y-101.5
X142.28Y-104.04
X144.82Y-101.5
X144.82Y-104.04
X147.36Y-101.5
X147.36Y-104.04
X149.9Y-101.5
X149.9Y-104.04
X152.44Y-101.5
X152.44Y-104.04
X154.98Y-101.5
X154.98Y-104.04
X157.52Y-101.5
X157.52Y-104.04
X160.06Y-101.5
X160.06Y-104.04
X162.6Y-101.5
X162.6Y-104.04
X165.14Y-101.5
X165.14Y-104.04
X167.68Y-101.5
X167.68Y-104.04
X170.22Y-101.5
X170.22Y-104.04
X172.76Y-101.5
X172.76Y-104.04
X176.5Y-122.5
X176.5Y-125.04
X176.5Y-127.58
T8
X104.Y-125.
X109.Y-125.
X120.Y-125.
X125.Y-125.
X136.Y-125.
X141.Y-125.
X152.Y-125.
X157.Y-125.
T9
X117.7Y-43.5
T10
X105.Y-43.5
T0
M30
