<?xml version="1.0" encoding="UTF-8" standalone="no"?>
<!-- Created with Inkscape (http://www.inkscape.org/) -->

<svg
   xmlns:dc="http://purl.org/dc/elements/1.1/"
   xmlns:cc="http://creativecommons.org/ns#"
   xmlns:rdf="http://www.w3.org/1999/02/22-rdf-syntax-ns#"
   xmlns:svg="http://www.w3.org/2000/svg"
   xmlns="http://www.w3.org/2000/svg"
   xmlns:sodipodi="http://sodipodi.sourceforge.net/DTD/sodipodi-0.dtd"
   xmlns:inkscape="http://www.inkscape.org/namespaces/inkscape"
   width="8mm"
   height="8mm"
   viewBox="0 0 28.346456 28.346457"
   id="svg2"
   version="1.1"
   inkscape:version="0.91 r13725"
   sodipodi:docname="project-logo-v2-bw-silk.svg"
   inkscape:export-filename="/home/camargo/hydrus/docs/branding/project-logo-v2-bw-silk.png"
   inkscape:export-xdpi="600.07501"
   inkscape:export-ydpi="600.07501">
  <defs
     id="defs4" />
  <sodipodi:namedview
     id="base"
     pagecolor="#ffffff"
     bordercolor="#666666"
     borderopacity="1.0"
     inkscape:pageopacity="0.0"
     inkscape:pageshadow="2"
     inkscape:zoom="11.313708"
     inkscape:cx="69.393255"
     inkscape:cy="30.803366"
     inkscape:document-units="px"
     inkscape:current-layer="g4518"
     showgrid="false"
     inkscape:object-nodes="true"
     inkscape:snap-smooth-nodes="true"
     inkscape:snap-bbox="true"
     inkscape:bbox-nodes="false"
     inkscape:snap-bbox-midpoints="false"
     inkscape:snap-global="false"
     inkscape:window-width="1858"
     inkscape:window-height="1023"
     inkscape:window-x="62"
     inkscape:window-y="28"
     inkscape:window-maximized="1"
     fit-margin-top="0"
     fit-margin-left="0"
     fit-margin-right="0"
     fit-margin-bottom="0" />
  <metadata
     id="metadata7">
    <rdf:RDF>
      <cc:Work
         rdf:about="">
        <dc:format>image/svg+xml</dc:format>
        <dc:type
           rdf:resource="http://purl.org/dc/dcmitype/StillImage" />
        <dc:title></dc:title>
      </cc:Work>
    </rdf:RDF>
  </metadata>
  <g
     inkscape:label="Layer 1"
     inkscape:groupmode="layer"
     id="layer1"
     transform="translate(-91.124888,-291.56825)">
    <g
       id="g4319"
       transform="matrix(0.64555067,0,0,0.64555067,8.6133956,120.3217)">
      <circle
         r="0"
         style="opacity:1;fill:#0b2228;fill-opacity:1;stroke:none;stroke-width:1;stroke-miterlimit:4;stroke-dasharray:none;stroke-dashoffset:0"
         id="ellipse4412"
         cx="-70.569305"
         cy="774.05835"
         transform="matrix(0.8660254,-0.5,0.5,0.8660254,0,0)" />
      <g
         id="g4518"
         transform="translate(5.057136,-300.37295)">
        <g
           id="g4168"
           transform="matrix(0.18057632,0,0,0.18057632,100.59125,499.48421)">
          <circle
             r="121.58434"
             cy="487.97116"
             cx="244.34288"
             id="path4159"
             style="opacity:1;fill:#000000;fill-opacity:1;stroke:none;stroke-width:1;stroke-linecap:round;stroke-linejoin:round;stroke-miterlimit:4;stroke-dasharray:1, 4;stroke-dashoffset:0" />
          <circle
             inkscape:export-ydpi="38.080002"
             inkscape:export-xdpi="38.080002"
             r="117.14286"
             cy="488.47031"
             cx="245.12978"
             id="path4136"
             style="opacity:1;fill:#000000;fill-opacity:1;stroke:none;stroke-width:1;stroke-miterlimit:4;stroke-dasharray:none;stroke-dashoffset:0" />
          <circle
             inkscape:export-ydpi="38.080002"
             inkscape:export-xdpi="38.080002"
             transform="matrix(0.70710678,-0.70710678,0.70710678,0.70710678,0,0)"
             r="1.1632454"
             cy="508.94806"
             cx="-258.49902"
             id="path4147"
             style="opacity:1;fill:#ffffff;fill-opacity:1;stroke:none;stroke-width:1;stroke-miterlimit:4;stroke-dasharray:none;stroke-dashoffset:0" />
          <circle
             inkscape:export-ydpi="38.080002"
             inkscape:export-xdpi="38.080002"
             style="opacity:1;fill:#ffffff;fill-opacity:1;stroke:none;stroke-width:1;stroke-miterlimit:4;stroke-dasharray:none;stroke-dashoffset:0"
             id="circle4253"
             cx="-233.17406"
             cy="464.68469"
             r="2.7123106"
             transform="matrix(0.70710678,-0.70710678,0.70710678,0.70710678,0,0)" />
          <circle
             inkscape:export-ydpi="38.080002"
             inkscape:export-xdpi="38.080002"
             transform="matrix(0.70710678,-0.70710678,0.70710678,0.70710678,0,0)"
             r="1.1632454"
             cy="507.32581"
             cx="-239.31767"
             id="circle4255"
             style="opacity:1;fill:#ffffff;fill-opacity:1;stroke:none;stroke-width:1;stroke-miterlimit:4;stroke-dasharray:none;stroke-dashoffset:0" />
          <circle
             inkscape:export-ydpi="38.080002"
             inkscape:export-xdpi="38.080002"
             style="opacity:1;fill:#ffffff;fill-opacity:1;stroke:none;stroke-width:1;stroke-miterlimit:4;stroke-dasharray:none;stroke-dashoffset:0"
             id="circle4257"
             cx="-241.65742"
             cy="531.37842"
             r="2.7123106"
             transform="matrix(0.70710678,-0.70710678,0.70710678,0.70710678,0,0)" />
          <path
             inkscape:export-ydpi="38.080002"
             inkscape:export-xdpi="38.080002"
             inkscape:connector-curvature="0"
             id="path4267"
             d="m 261.79132,446.58296 -43.04393,-46.83178 -38.01453,67.40766 z"
             style="opacity:1;fill:none;fill-rule:evenodd;stroke:#ffffff;stroke-width:4.64719534;stroke-linecap:butt;stroke-linejoin:miter;stroke-opacity:1" />
          <circle
             inkscape:export-ydpi="38.080002"
             inkscape:export-xdpi="38.080002"
             transform="matrix(0.70710678,-0.70710678,0.70710678,0.70710678,0,0)"
             r="2.7123106"
             cy="512.64172"
             cx="-76.109985"
             id="circle4269"
             style="opacity:1;fill:#ffffff;fill-opacity:1;stroke:none;stroke-width:1;stroke-miterlimit:4;stroke-dasharray:none;stroke-dashoffset:0" />
          <circle
             inkscape:export-ydpi="38.080002"
             inkscape:export-xdpi="38.080002"
             style="opacity:1;fill:#ffffff;fill-opacity:1;stroke:none;stroke-width:1;stroke-miterlimit:4;stroke-dasharray:none;stroke-dashoffset:0"
             id="circle4271"
             cx="-192.41145"
             cy="422.63144"
             r="1.1632454"
             transform="matrix(0.70710678,-0.70710678,0.70710678,0.70710678,0,0)" />
          <circle
             inkscape:export-ydpi="38.080002"
             inkscape:export-xdpi="38.080002"
             transform="matrix(0.70710678,-0.70710678,0.70710678,0.70710678,0,0)"
             r="1.1632454"
             cy="473.57965"
             cx="-93.089432"
             id="circle4273"
             style="opacity:1;fill:#ffffff;fill-opacity:1;stroke:none;stroke-width:1;stroke-miterlimit:4;stroke-dasharray:none;stroke-dashoffset:0" />
          <circle
             inkscape:export-ydpi="38.080002"
             inkscape:export-xdpi="38.080002"
             style="opacity:1;fill:#ffffff;fill-opacity:1;stroke:none;stroke-width:1;stroke-miterlimit:4;stroke-dasharray:none;stroke-dashoffset:0"
             id="circle4275"
             cx="-157.70293"
             cy="423.96481"
             r="2.7123106"
             transform="matrix(0.70710678,-0.70710678,0.70710678,0.70710678,0,0)" />
          <circle
             inkscape:export-ydpi="38.080002"
             inkscape:export-xdpi="38.080002"
             transform="matrix(0.70710678,-0.70710678,0.70710678,0.70710678,0,0)"
             r="2.7123106"
             cy="542.79236"
             cx="-73.887543"
             id="circle4277"
             style="opacity:1;fill:#ffffff;fill-opacity:1;stroke:none;stroke-width:1;stroke-miterlimit:4;stroke-dasharray:none;stroke-dashoffset:0" />
          <circle
             inkscape:export-ydpi="38.080002"
             inkscape:export-xdpi="38.080002"
             style="opacity:1;fill:#ffffff;fill-opacity:1;stroke:none;stroke-width:1;stroke-miterlimit:4;stroke-dasharray:none;stroke-dashoffset:0"
             id="circle4279"
             cx="-101.27023"
             cy="536.22058"
             r="2.7123106"
             transform="matrix(0.70710678,-0.70710678,0.70710678,0.70710678,0,0)" />
          <circle
             inkscape:export-ydpi="38.080002"
             inkscape:export-xdpi="38.080002"
             transform="matrix(0.70710678,-0.70710678,0.70710678,0.70710678,0,0)"
             r="1.1632454"
             cy="573.61621"
             cx="-87.838364"
             id="circle4281"
             style="opacity:1;fill:#ffffff;fill-opacity:1;stroke:none;stroke-width:1;stroke-miterlimit:4;stroke-dasharray:none;stroke-dashoffset:0" />
          <circle
             inkscape:export-ydpi="38.080002"
             inkscape:export-xdpi="38.080002"
             style="opacity:1;fill:#ffffff;fill-opacity:1;stroke:none;stroke-width:1;stroke-miterlimit:4;stroke-dasharray:none;stroke-dashoffset:0"
             id="circle4283"
             cx="-112.19971"
             cy="595.151"
             r="2.7123106"
             transform="matrix(0.70710678,-0.70710678,0.70710678,0.70710678,0,0)" />
          <circle
             inkscape:export-ydpi="38.080002"
             inkscape:export-xdpi="38.080002"
             r="1.1632454"
             transform="matrix(0.25881905,-0.96592583,0.96592583,0.25881905,0,0)"
             cy="434.09363"
             cx="-355.97733"
             id="circle4285"
             style="opacity:1;fill:#ffffff;fill-opacity:1;stroke:none;stroke-width:1;stroke-miterlimit:4;stroke-dasharray:none;stroke-dashoffset:0" />
          <path
             inkscape:connector-curvature="0"
             id="path3374"
             d="m 226.28711,378.48633 c -4.9885,0.84719 -7.07544,6.92329 -10.35938,9.58789 -4.37134,-1.77829 -8.59813,-6.8815 -13.78906,-4.2461 -3.5181,5.0183 1.74805,9.95031 4.86719,13.25977 -2.03512,5.06617 -10.1037,8.16497 -7.94141,14.7168 0.43454,4.40497 3.44905,2.03318 6.16061,0.76398 4.02072,-2.2282 11.47186,-2.45363 11.54252,3.61102 0.64618,4.7371 7.79371,7.62187 9.8789,2.26172 1.7121,-3.70784 -0.53495,-8.28365 1.81055,-11.68555 4.53601,0.93768 12.3591,0.51548 12.87695,-5.25586 -1.16965,-6.07061 -9.24707,-4.46078 -12.32031,-8.06445 1.24943,-4.18202 2.8403,-9.25487 0.81641,-13.40039 -0.80866,-1.10353 -2.20254,-1.6236 -3.54297,-1.54883 z m 39.65039,46.12695 c -4.61011,1.78865 -6.16614,7.36425 -8.87891,10.53125 -4.57677,-1.24927 -9.29802,-6.00624 -14.21093,-2.79101 -2.91699,5.26621 2.58409,9.71053 6.1289,12.52734 -1.11638,5.33611 -9.21356,9.29059 -6.28906,15.61133 0.84457,3.64291 3.03046,2.4769 5.34961,0.59765 3.66286,-2.56099 11.63817,-4.7761 12.47656,1.52735 0.90507,4.72673 8.47711,7.33643 10.27149,1.79492 1.39906,-3.9604 -1.36886,-8.29575 0.62109,-12.01172 4.61775,0.47639 12.38042,-0.8083 12.25977,-6.5957 -1.84546,-5.88032 -9.59484,-3.42583 -13.09961,-6.68555 0.8132,-4.16532 1.55075,-8.93204 -0.18164,-12.92773 -0.9383,-1.37395 -2.89022,-2.10753 -4.44727,-1.57813 z m -92,20.89844 c -6.07626,1.51198 -3.81039,9.13847 -3.37305,13.5 1.33632,3.39015 -4.25022,2.91095 -6.66601,3.66406 -4.11695,0.40207 -8.25826,5.87256 -3.86133,8.90039 2.92523,3.16609 7.958,0.59453 10.96289,2.5625 1.19171,5.36846 -1.4248,13.62096 5.50391,16.06055 3.62732,2.37184 2.79238,-4.6526 4.9375,-6.64258 1.55026,-4.26617 6.67719,-6.43523 10.08593,-3.05859 3.78239,2.5734 10.25775,-0.5331 8.17383,-5.47657 -1.3711,-3.90707 -6.25017,-5.56503 -7.03125,-9.66406 3.88038,-2.54756 9.14131,-8.43538 5.35156,-12.85742 -5.1223,-3.36039 -9.6121,3.38064 -14.35937,3.06641 -1.97828,-3.72964 -4.35757,-7.87741 -8.19531,-9.87696 -0.49364,-0.14846 -1.01543,-0.20231 -1.5293,-0.17773 z"
             style="opacity:1;fill:#000000;fill-opacity:1;stroke:none;stroke-width:1.5;stroke-miterlimit:4;stroke-dasharray:none;stroke-dashoffset:0" />
          <path
             transform="matrix(1.5490651,0,0,1.5490651,11.032392,-32.966981)"
             d="m 136.58398,273.08984 a 0.70717176,0.70717176 0 0 0 -0.55664,0.28711 l -2.47656,3.35938 -3.60547,-2.10156 a 0.70717176,0.70717176 0 0 0 -0.92969,1.02343 l 2.43165,3.39258 -3.11329,2.77734 a 0.70717176,0.70717176 0 0 0 0.68555,1.20118 l 3.97656,-1.26368 1.68164,3.82032 a 0.70717176,0.70717176 0 0 0 1.35352,-0.28125 l 0.0254,-4.17188 4.15234,-0.41992 a 0.70717176,0.70717176 0 0 0 0.15235,-1.375 l -3.96094,-1.31445 0.88672,-4.07617 a 0.70717176,0.70717176 0 0 0 -0.70313,-0.85743 z m 26.68946,29.91407 a 0.70717176,0.70717176 0 0 0 -0.59375,0.34961 l -2.10938,3.5996 -3.80469,-1.71289 a 0.70717176,0.70717176 0 0 0 -0.82031,1.11524 l 2.77344,3.11719 -2.80469,3.09179 a 0.70717176,0.70717176 0 0 0 0.80664,1.12305 l 3.82227,-1.67578 2.07226,3.62305 a 0.70717176,0.70717176 0 0 0 1.31641,-0.42188 l -0.41016,-4.15039 4.08594,-0.85156 a 0.70717176,0.70717176 0 0 0 0.008,-1.38282 l -4.07617,-0.89257 0.45313,-4.14844 a 0.70717176,0.70717176 0 0 0 -0.71875,-0.7832 z m -55.79688,13.52343 a 0.70717176,0.70717176 0 0 0 -0.69922,0.8125 l 0.625,4.12696 -4.0332,1.0625 a 0.70717176,0.70717176 0 0 0 0.0644,1.38086 l 4.11719,0.67773 -0.23633,4.16602 a 0.70717176,0.70717176 0 0 0 1.33203,0.36523 l 1.91993,-3.70508 3.88867,1.51172 a 0.70717176,0.70717176 0 0 0 0.75976,-1.1543 l -2.93359,-2.9707 2.64063,-3.23047 a 0.70717176,0.70717176 0 0 0 -0.86329,-1.08008 l -3.73047,1.8711 -2.25585,-3.50977 a 0.70717176,0.70717176 0 0 0 -0.59571,-0.32422 z"
             id="path4164"
             style="opacity:1;fill:#ffffff;fill-opacity:1;stroke:none;stroke-width:1.5;stroke-miterlimit:4;stroke-dasharray:none;stroke-dashoffset:0"
             inkscape:original="M 136.5957 273.79688 L 133.74414 277.66797 L 129.58984 275.24609 L 132.39258 279.1543 L 128.80469 282.35547 L 133.38672 280.89844 L 135.32422 285.30078 L 135.35352 280.49219 L 140.13867 280.00977 L 135.57422 278.49414 L 136.5957 273.79688 z M 163.28906 303.71094 L 160.85938 307.85938 L 156.47461 305.88477 L 159.66992 309.47852 L 156.4375 313.03906 L 160.8418 311.10938 L 163.22852 315.2832 L 162.75586 310.5 L 167.46289 309.51953 L 162.76758 308.49023 L 163.28906 303.71094 z M 107.47656 317.23438 L 108.19727 321.98828 L 103.54883 323.21289 L 108.29297 323.99414 L 108.01953 328.79492 L 110.23047 324.52539 L 114.71094 326.26758 L 111.33203 322.8457 L 114.375 319.12305 L 110.07617 321.27734 L 107.47656 317.23438 z "
             inkscape:radius="0.70710105"
             sodipodi:type="inkscape:offset" />
          <circle
             inkscape:export-ydpi="38.080002"
             inkscape:export-xdpi="38.080002"
             transform="matrix(0.70710678,-0.70710678,0.70710678,0.70710678,0,0)"
             cy="531.37842"
             cx="-241.65742"
             id="circle4398"
             style="opacity:1;fill:#ffffff;fill-opacity:1;stroke:none;stroke-width:1;stroke-miterlimit:4;stroke-dasharray:none;stroke-dashoffset:0"
             r="2.7123106" />
          <path
             inkscape:export-ydpi="38.080002"
             inkscape:export-xdpi="38.080002"
             inkscape:connector-curvature="0"
             id="circle4175"
             d="m 362.2359,489.20959 a 6.9714903,6.9714903 0 0 0 -1.61555,0.67429 l -3.38087,1.94687 a 6.9714903,6.9714903 0 0 0 -0.3462,0.21236 c -12.76645,8.37069 -30.05214,9.46533 -43.58658,2.72443 a 6.9714903,6.9714903 0 0 0 -0.17001,-0.0806 c -16.0682,-7.47348 -32.26728,-21.08531 -54.28355,-23.61635 -9.97869,-1.47873 -20.5133,-1.58927 -30.82169,0.95857 a 6.9714903,6.9714903 0 0 0 -3.99755,10.82083 c 8.15407,11.40363 14.56527,25.21575 10.31911,36.6103 -2.62459,5.27913 -7.08167,8.66926 -13.1344,11.17382 -6.12061,2.53264 -13.62242,3.87116 -20.65747,4.76217 -15.79597,1.4395 -30.84761,2.52271 -41.55039,-5.86102 a 6.9714903,6.9714903 0 0 0 -0.23229,-0.17253 C 148.28688,521.8223 141.2787,509.68819 136.64422,496.80644 a 6.9714903,6.9714903 0 0 0 -0.0879,-0.22894 c -0.46267,-1.15713 -0.9166,-2.15298 -1.6009,-3.20557 -0.6843,-1.0526 -1.46456,-2.44385 -4.0611,-3.47661 -0.83497,-0.3321 -1.84246,-0.39668 -2.86872,-0.30774 A 117.14286,117.14286 0 0 0 245.12928,605.6112 117.14286,117.14286 0 0 0 362.2359,489.20959 Z"
             style="opacity:1;fill:#000000;fill-opacity:1;stroke:none;stroke-width:1;stroke-miterlimit:4;stroke-dasharray:none;stroke-dashoffset:0" />
          <path
             inkscape:export-ydpi="38.080002"
             inkscape:export-xdpi="38.080002"
             transform="matrix(0.83752264,0.50000001,-0.48354393,0.86602541,276.02819,-57.12228)"
             d="m 351.66211,439.82031 c -21.26869,37.79164 -55.29032,27.52657 -79.78906,30.11133 -25.68667,2.7101 -41.36524,17.31641 -41.36524,17.31641 0,0 75.76848,32.93235 -13.98828,83.36328 -24.21214,13.60389 -51.6146,-0.083 -66.10937,-13.4336 35.19263,48.52825 101.3433,62.65783 153.29101,32.74219 52.27717,-30.19839 73.04077,-95.1829 47.96094,-150.09961 z"
             id="path6082"
             style="opacity:1;fill:#ffffff;fill-opacity:1;stroke:none;stroke-width:1;stroke-miterlimit:4;stroke-dasharray:none;stroke-dashoffset:0"
             inkscape:original="M 351.66211 439.82031 C 330.39342 477.61195 296.37179 467.34688 271.87305 469.93164 C 246.18638 472.64174 230.50781 487.24805 230.50781 487.24805 C 230.50781 487.24805 306.27629 520.1804 216.51953 570.61133 C 192.30739 584.21522 164.90493 570.52831 150.41016 557.17773 C 185.60279 605.70598 251.75346 619.83556 303.70117 589.91992 C 355.97834 559.72153 376.74194 494.73702 351.66211 439.82031 z "
             inkscape:radius="0"
             sodipodi:type="inkscape:offset" />
          <path
             transform="matrix(1.5490651,0,0,1.5490651,11.032392,-32.966981)"
             inkscape:export-ydpi="38.080002"
             inkscape:export-xdpi="38.080002"
             id="circle6164"
             d="m 226.64453,333.77734 a 75.621652,75.621652 0 0 1 -37.71289,64.32618 75.621652,75.621652 0 0 1 -103.300781,-27.67774 75.621652,75.621652 0 0 1 -10.03125,-34.97266 75.621652,75.621652 0 0 0 10.03125,38.97266 75.621652,75.621652 0 0 0 103.300781,27.67774 75.621652,75.621652 0 0 0 37.71289,-68.32618 z"
             style="opacity:1;fill:#000000;fill-opacity:1;stroke:none;stroke-width:1;stroke-miterlimit:4;stroke-dasharray:none;stroke-dashoffset:0"
             inkscape:connector-curvature="0" />
        </g>
      </g>
    </g>
  </g>
</svg>
