<?xml version="1.0" encoding="UTF-8" standalone="no"?>
<!-- Created with Inkscape (http://www.inkscape.org/) -->

<svg
   xmlns:dc="http://purl.org/dc/elements/1.1/"
   xmlns:cc="http://creativecommons.org/ns#"
   xmlns:rdf="http://www.w3.org/1999/02/22-rdf-syntax-ns#"
   xmlns:svg="http://www.w3.org/2000/svg"
   xmlns="http://www.w3.org/2000/svg"
   xmlns:xlink="http://www.w3.org/1999/xlink"
   xmlns:sodipodi="http://sodipodi.sourceforge.net/DTD/sodipodi-0.dtd"
   xmlns:inkscape="http://www.inkscape.org/namespaces/inkscape"
   width="190mm"
   height="190mm"
   viewBox="0 0 673.22834 673.22835"
   id="svg2"
   version="1.1"
   inkscape:version="0.91 r13725"
   sodipodi:docname="project-logo.svg"
   inkscape:export-filename="/home/camargo/babileo/docs/branding/project-logo.png"
   inkscape:export-xdpi="90"
   inkscape:export-ydpi="90">
  <defs
     id="defs4">
    <linearGradient
       inkscape:collect="always"
       id="linearGradient4428">
      <stop
         style="stop-color:#ffffff;stop-opacity:1;"
         offset="0"
         id="stop4430" />
      <stop
         style="stop-color:#ffffff;stop-opacity:0;"
         offset="1"
         id="stop4432" />
    </linearGradient>
    <radialGradient
       inkscape:collect="always"
       xlink:href="#linearGradient4428"
       id="radialGradient4434"
       cx="177.83403"
       cy="494.53418"
       fx="177.83403"
       fy="494.53418"
       r="51.013626"
       gradientTransform="matrix(2.4113876,1.1547665e-7,-2.5630822e-8,0.53522375,-250.99273,229.84772)"
       gradientUnits="userSpaceOnUse" />
  </defs>
  <sodipodi:namedview
     id="base"
     pagecolor="#ffffff"
     bordercolor="#666666"
     borderopacity="1.0"
     inkscape:pageopacity="0.0"
     inkscape:pageshadow="2"
     inkscape:zoom="1"
     inkscape:cx="386.7758"
     inkscape:cy="306.74062"
     inkscape:document-units="px"
     inkscape:current-layer="g4319"
     showgrid="false"
     inkscape:object-nodes="true"
     inkscape:snap-smooth-nodes="true"
     inkscape:snap-bbox="true"
     inkscape:bbox-nodes="false"
     inkscape:snap-bbox-midpoints="false"
     inkscape:snap-global="false"
     inkscape:window-width="1920"
     inkscape:window-height="1017"
     inkscape:window-x="0"
     inkscape:window-y="34"
     inkscape:window-maximized="1"
     fit-margin-top="0"
     fit-margin-left="0"
     fit-margin-right="0"
     fit-margin-bottom="0" />
  <metadata
     id="metadata7">
    <rdf:RDF>
      <cc:Work
         rdf:about="">
        <dc:format>image/svg+xml</dc:format>
        <dc:type
           rdf:resource="http://purl.org/dc/dcmitype/StillImage" />
        <dc:title></dc:title>
      </cc:Work>
    </rdf:RDF>
  </metadata>
  <g
     inkscape:label="Layer 1"
     inkscape:groupmode="layer"
     id="layer1"
     transform="translate(-19.000001,94.866116)">
    <g
       id="g4319"
       transform="matrix(0.64555067,0,0,0.64555067,8.6133956,120.3217)">
      <circle
         r="0"
         style="opacity:1;fill:#0b2228;fill-opacity:1;stroke:none;stroke-width:1;stroke-miterlimit:4;stroke-dasharray:none;stroke-dashoffset:0"
         id="ellipse4412"
         cx="-70.569305"
         cy="774.05835"
         transform="matrix(0.8660254,-0.5,0.5,0.8660254,0,0)" />
      <g
         id="g4518"
         transform="translate(5.057136,-300.37295)">
        <circle
           style="opacity:1;fill:#002255;fill-opacity:1;stroke:none;stroke-width:1;stroke-miterlimit:4;stroke-dasharray:none;stroke-dashoffset:0"
           id="path4136"
           cx="245.12978"
           cy="488.47028"
           r="117.14286" />
        <path
           inkscape:connector-curvature="0"
           id="path4160"
           transform="matrix(1.5490651,0,0,1.5490651,-13.34271,-186.38614)"
           d="m 185.21484,362.39062 -2.48242,18.38477 c -5.84695,-0.76394 -11.80824,-1.16211 -17.86328,-1.16211 -5.53928,0 -10.99838,0.3394 -16.36523,0.98047 l -2.26758,-17.67383 a 75.621652,75.621652 0 0 0 -1.2461,0.41406 l 2.23243,17.41211 c -11.56763,1.49252 -22.68041,4.43508 -33.1543,8.63477 l -2.24024,-5.45898 a 75.621652,75.621652 0 0 0 -0.96679,1.0371 l 2.01367,4.91016 c -3.09021,1.27329 -6.11607,2.66874 -9.08789,4.15625 a 75.621652,75.621652 0 0 0 -1.49023,2.43164 c 3.62245,-1.89499 7.33846,-3.63735 11.14453,-5.20508 l 17.63086,42.97461 c -6.78163,2.79916 -13.13982,6.41234 -18.95313,10.72266 L 92.955078,419.79883 a 75.621652,75.621652 0 0 0 -0.341797,1.68164 l 18.474609,24.24609 c -5.74431,4.38971 -10.9335,9.46803 -15.451171,15.10742 a 75.621652,75.621652 0 0 0 0.902343,2.5879 l 32.912108,25.43164 c -2.15765,2.78786 -3.99117,5.83819 -5.45117,9.09179 a 75.621652,75.621652 0 0 0 1.27539,0.80469 c 1.42409,-3.22 3.22737,-6.23341 5.35547,-8.98438 l 27.0293,20.88282 a 75.621652,75.621652 0 0 0 2.48828,0.29297 L 131.42969,488.75 c 2.1154,-2.57275 4.52429,-4.89083 7.17187,-6.91602 l 22.20313,29.13868 a 75.621652,75.621652 0 0 0 1.68945,0.084 l -22.85352,-29.99023 c 2.67786,-1.92481 5.5805,-3.55465 8.66797,-4.83399 l 14.28907,34.83008 a 75.621652,75.621652 0 0 0 4.25976,0.21289 75.621652,75.621652 0 0 0 0.84375,-0.0293 l 14.50195,-34.67968 c 3.03339,1.32719 5.88942,2.9843 8.51172,4.93945 l -22.97656,29.73828 a 75.621652,75.621652 0 0 0 1.67578,-0.0586 l 22.31641,-28.88477 c 2.58111,2.04644 4.92047,4.37842 6.97461,6.95313 l -28.75391,21.91211 a 75.621652,75.621652 0 0 0 2.23242,-0.0801 l 27.32032,-20.81641 c 2.37422,3.16462 4.3246,6.66667 5.76757,10.41992 a 75.621652,75.621652 0 0 0 1.31055,-0.75195 c -1.4875,-3.80403 -3.47703,-7.35627 -5.89258,-10.57227 l 33.73243,-25.70312 c 0.57185,0.75566 1.12435,1.52619 1.67187,2.30078 a 75.621652,75.621652 0 0 0 0.68359,-1.5957 c -0.38836,-0.53753 -0.7699,-1.08098 -1.16992,-1.60938 l 2.43555,-1.85547 a 75.621652,75.621652 0 0 0 0.82031,-2.24804 l -4.04297,3.08008 c -4.46456,-5.72305 -9.61392,-10.88596 -15.32812,-15.36133 l 21.05859,-27.25586 a 75.621652,75.621652 0 0 0 -0.36523,-1.63281 l -21.7168,28.10351 c -5.74178,-4.36425 -12.02977,-8.04507 -18.74609,-10.91992 l 17.92187,-42.85938 c 5.41672,2.30024 10.64626,4.95098 15.67188,7.91211 a 75.621652,75.621652 0 0 0 -1.4668,-2.55859 c -4.39978,-2.48272 -8.94246,-4.74189 -13.62891,-6.73242 l 3.04492,-7.2793 a 75.621652,75.621652 0 0 0 -0.99804,-0.96289 l -3.24024,7.74805 c -10.41875,-4.30882 -21.48673,-7.36296 -33.01562,-8.98047 l 2.46289,-18.24219 a 75.621652,75.621652 0 0 0 -1.25977,-0.32227 z m -20.3457,18.72266 c 5.98691,0 11.88121,0.39384 17.66211,1.14844 l -6.2168,46.02148 c -3.74734,-0.48319 -7.56668,-0.73437 -11.44531,-0.73437 -3.4736,0 -6.89802,0.20689 -10.26758,0.5957 l -5.9082,-46.06445 c 5.3046,-0.63282 10.70059,-0.9668 16.17578,-0.9668 z m -17.45508,1.1211 5.90625,46.0625 c -7.33653,0.95479 -14.39269,2.80604 -21.05273,5.4414 l -17.63086,-42.97266 c 10.35478,-4.14914 21.34071,-7.05638 32.77734,-8.53124 z m 36.39649,0.20703 c 11.39876,1.59895 22.34008,4.61718 32.64062,8.875 l -17.91992,42.85351 c -6.61614,-2.71797 -13.6331,-4.65669 -20.9375,-5.70703 l 6.2168,-46.02148 z m -18.94141,46.60547 c 3.81124,0 7.56411,0.24663 11.24609,0.7207 l -5.67773,42.03711 c -1.82582,-0.2269 -3.68134,-0.35742 -5.56836,-0.35742 -1.58192,0 -3.14392,0.0839 -4.68359,0.24414 l -5.39453,-42.06055 c 3.30738,-0.38066 6.66855,-0.58398 10.07812,-0.58398 z m -11.35937,0.73632 5.39648,42.07032 c -3.46245,0.46153 -6.79916,1.31686 -9.96484,2.52343 l -16.10743,-39.25781 c 6.54087,-2.58511 13.4704,-4.3986 20.67579,-5.33594 z m 23.88476,0.16211 c 7.17325,1.03188 14.06346,2.93672 20.56055,5.60352 l -16.36719,39.14062 c -3.13193,-1.26279 -6.43346,-2.19276 -9.86914,-2.7207 l 5.67578,-42.02344 z m -45.75391,5.66211 16.09961,39.24219 c -3.20788,1.33048 -6.22297,3.02727 -9.0039,5.03125 l -25.71485,-33.74805 c 5.71071,-4.23119 11.95755,-7.77722 18.61914,-10.52539 z m 67.50586,0.4375 c 6.59704,2.82331 12.77225,6.4377 18.41211,10.72266 l -25.92968,33.55859 c -2.72547,-2.03551 -5.69542,-3.75918 -8.84961,-5.13867 l 16.36718,-39.14258 z m -87.15429,10.86719 25.70508,33.73633 c -2.74948,2.10398 -5.25218,4.51544 -7.44727,7.18945 L 96.683594,461.90234 c 4.467686,-5.60149 9.612436,-10.63815 15.308596,-14.99023 z m 106.58789,0.64062 c 5.61191,4.39548 10.67149,9.46361 15.05664,15.08399 l -33.74414,25.71289 c -2.13365,-2.67703 -4.56683,-5.10223 -7.25,-7.22852 l 25.9375,-33.56836 z m -53.71094,25.39454 c 1.8189,0 3.60741,0.12415 5.36719,0.34179 l -5.05078,37.39063 -4.8086,-37.50196 c 1.47672,-0.15216 2.9751,-0.23046 4.49219,-0.23046 z m -5.77344,0.39453 4.81055,37.50976 -14.39844,-35.09179 c 3.04582,-1.1563 6.25728,-1.97405 9.58789,-2.41797 z m 12.42188,0.11328 c 3.30457,0.5091 6.48128,1.40155 9.49414,2.61328 l -14.54492,34.7832 5.05078,-37.39648 z"
           style="color:#000000;font-style:normal;font-variant:normal;font-weight:normal;font-stretch:normal;font-size:medium;line-height:normal;font-family:sans-serif;text-indent:0;text-align:start;text-decoration:none;text-decoration-line:none;text-decoration-style:solid;text-decoration-color:#000000;letter-spacing:normal;word-spacing:normal;text-transform:none;direction:ltr;block-progression:tb;writing-mode:lr-tb;baseline-shift:baseline;text-anchor:start;white-space:normal;clip-rule:nonzero;display:inline;overflow:visible;visibility:visible;opacity:0.1;isolation:auto;mix-blend-mode:normal;color-interpolation:sRGB;color-interpolation-filters:linearRGB;solid-color:#000000;solid-opacity:1;fill:#d5e5ff;fill-opacity:1;fill-rule:evenodd;stroke:none;stroke-width:2;stroke-linecap:butt;stroke-linejoin:miter;stroke-miterlimit:4;stroke-dasharray:none;stroke-dashoffset:0;stroke-opacity:1;color-rendering:auto;image-rendering:auto;shape-rendering:auto;text-rendering:auto;enable-background:accumulate" />
        <circle
           style="opacity:1;fill:#ffffff;fill-opacity:1;stroke:none;stroke-width:1;stroke-miterlimit:4;stroke-dasharray:none;stroke-dashoffset:0"
           id="path4147"
           cx="-77.392593"
           cy="484.41931"
           r="2.7123106"
           transform="matrix(0.8660254,-0.5,0.5,0.8660254,0,0)" />
        <circle
           transform="matrix(0.8660254,-0.5,0.5,0.8660254,0,0)"
           r="2.7123106"
           cy="491.5437"
           cx="-93.052834"
           id="circle4253"
           style="opacity:1;fill:#ffffff;fill-opacity:1;stroke:none;stroke-width:1;stroke-miterlimit:4;stroke-dasharray:none;stroke-dashoffset:0" />
        <circle
           style="opacity:1;fill:#ffffff;fill-opacity:1;stroke:none;stroke-width:1;stroke-miterlimit:4;stroke-dasharray:none;stroke-dashoffset:0"
           id="circle4255"
           cx="-99.196449"
           cy="534.18481"
           r="2.7123106"
           transform="matrix(0.8660254,-0.5,0.5,0.8660254,0,0)" />
        <circle
           transform="matrix(0.8660254,-0.5,0.5,0.8660254,0,0)"
           r="2.7123106"
           cy="558.23743"
           cx="-101.53621"
           id="circle4257"
           style="opacity:1;fill:#ffffff;fill-opacity:1;stroke:none;stroke-width:1;stroke-miterlimit:4;stroke-dasharray:none;stroke-dashoffset:0" />
        <path
           style="opacity:0.5;fill:none;fill-rule:evenodd;stroke:#ffffff;stroke-width:2.32359767;stroke-linecap:butt;stroke-linejoin:miter;stroke-opacity:1"
           d="m 281.125,520.2372 -70.125,-24 54.125,-72.125 z"
           id="path4267"
           inkscape:connector-curvature="0" />
        <circle
           style="opacity:1;fill:#ffffff;fill-opacity:1;stroke:none;stroke-width:1;stroke-miterlimit:4;stroke-dasharray:none;stroke-dashoffset:0"
           id="circle4269"
           cx="64.01123"
           cy="539.50073"
           r="2.7123106"
           transform="matrix(0.8660254,-0.5,0.5,0.8660254,0,0)" />
        <circle
           transform="matrix(0.8660254,-0.5,0.5,0.8660254,0,0)"
           r="2.7123106"
           cy="461.34177"
           cx="4.6359315"
           id="circle4271"
           style="opacity:1;fill:#ffffff;fill-opacity:1;stroke:none;stroke-width:1;stroke-miterlimit:4;stroke-dasharray:none;stroke-dashoffset:0" />
        <circle
           style="opacity:1;fill:#ffffff;fill-opacity:1;stroke:none;stroke-width:1;stroke-miterlimit:4;stroke-dasharray:none;stroke-dashoffset:0"
           id="circle4273"
           cx="-6.181056"
           cy="481.07733"
           r="2.7123106"
           transform="matrix(0.8660254,-0.5,0.5,0.8660254,0,0)" />
        <circle
           transform="matrix(0.8660254,-0.5,0.5,0.8660254,0,0)"
           r="2.7123106"
           cy="450.82382"
           cx="-17.581692"
           id="circle4275"
           style="opacity:1;fill:#ffffff;fill-opacity:1;stroke:none;stroke-width:1;stroke-miterlimit:4;stroke-dasharray:none;stroke-dashoffset:0" />
        <circle
           style="opacity:1;fill:#ffffff;fill-opacity:1;stroke:none;stroke-width:1;stroke-miterlimit:4;stroke-dasharray:none;stroke-dashoffset:0"
           id="circle4277"
           cx="66.233658"
           cy="569.65137"
           r="2.7123106"
           transform="matrix(0.8660254,-0.5,0.5,0.8660254,0,0)" />
        <circle
           transform="matrix(0.8660254,-0.5,0.5,0.8660254,0,0)"
           r="2.7123106"
           cy="563.07959"
           cx="38.850971"
           id="circle4279"
           style="opacity:1;fill:#ffffff;fill-opacity:1;stroke:none;stroke-width:1;stroke-miterlimit:4;stroke-dasharray:none;stroke-dashoffset:0" />
        <circle
           style="opacity:1;fill:#ffffff;fill-opacity:1;stroke:none;stroke-width:1;stroke-miterlimit:4;stroke-dasharray:none;stroke-dashoffset:0"
           id="circle4281"
           cx="44.64872"
           cy="612.0376"
           r="2.7123106"
           transform="matrix(0.8660254,-0.5,0.5,0.8660254,0,0)" />
        <circle
           transform="matrix(0.8660254,-0.5,0.5,0.8660254,0,0)"
           r="2.7123106"
           cy="622.01001"
           cx="27.921478"
           id="circle4283"
           style="opacity:1;fill:#ffffff;fill-opacity:1;stroke:none;stroke-width:1;stroke-miterlimit:4;stroke-dasharray:none;stroke-dashoffset:0" />
        <circle
           style="opacity:1;fill:#ffffff;fill-opacity:1;stroke:none;stroke-width:1;stroke-miterlimit:4;stroke-dasharray:none;stroke-dashoffset:0"
           id="circle4285"
           cx="17.404818"
           cy="588.2254"
           transform="matrix(0.8660254,-0.5,0.5,0.8660254,0,0)"
           r="2.7123106" />
        <text
           xml:space="preserve"
           style="font-style:normal;font-variant:normal;font-weight:normal;font-stretch:normal;font-size:156.16433716px;line-height:125%;font-family:'Noto Serif';-inkscape-font-specification:'Noto Serif';letter-spacing:0px;word-spacing:0px;fill:#00112b;fill-opacity:1;stroke:none;stroke-width:1px;stroke-linecap:butt;stroke-linejoin:miter;stroke-opacity:1"
           x="392.96979"
           y="550.69397"
           id="text4315"
           sodipodi:linespacing="125%"><tspan
             sodipodi:role="line"
             id="tspan4317"
             x="392.96979"
             y="550.69397">Hydrus</tspan></text>
        <path
           d="m 216.49151,505.74882 -5.8139,-6.44423 -7.02669,5.09463 4.33224,-7.52073 -7.01665,-5.10844 8.49137,1.79616 2.69016,-8.25182 0.91572,8.63082 8.67926,0.009 -7.92543,3.53797 z"
           inkscape:randomized="0"
           inkscape:rounded="0"
           inkscape:flatsided="false"
           sodipodi:arg2="1.6755161"
           sodipodi:arg1="1.0471976"
           sodipodi:r2="3.0842414"
           sodipodi:r1="10.983022"
           sodipodi:cy="496.23724"
           sodipodi:cx="211"
           sodipodi:sides="5"
           id="path4448"
           style="opacity:1;fill:#ffffff;fill-opacity:1;stroke:none;stroke-width:1.5;stroke-miterlimit:4;stroke-dasharray:none;stroke-dashoffset:0"
           sodipodi:type="star" />
        <circle
           r="2.7123106"
           style="opacity:1;fill:#ffffff;fill-opacity:1;stroke:none;stroke-width:1;stroke-miterlimit:4;stroke-dasharray:none;stroke-dashoffset:0"
           id="circle4398"
           cx="-101.53621"
           cy="558.23743"
           transform="matrix(0.8660254,-0.5,0.5,0.8660254,0,0)" />
        <path
           inkscape:connector-curvature="0"
           id="circle4469"
           d="M 128.26362,496.24025 A 117.14286,117.14286 0 0 0 245.1303,605.61272 117.14286,117.14286 0 0 0 361.85477,496.82115 117.96438,61.279782 0 0 1 245.1303,549.74956 117.96438,61.279782 0 0 1 128.26362,496.24025 Z"
           style="opacity:1;fill:#002255;fill-opacity:1;stroke:none;stroke-width:1;stroke-miterlimit:4;stroke-dasharray:none;stroke-dashoffset:0" />
        <path
           sodipodi:nodetypes="cssccc"
           inkscape:connector-curvature="0"
           id="circle4454"
           d="m 361.71508,499.60506 c -9.42405,32.97294 -59.05411,57.19853 -116.5853,57.21253 -24.26479,0.006 -46.95625,-4.20486 -65.84777,-11.51699 -25.89978,-10.02475 -44.65728,-25.87874 -50.53482,-44.68805 6.21357,59.62301 56.43672,104.93443 116.38259,105.00059 60.37254,-0.014 110.84671,-45.9089 116.5853,-106.00808 z"
           style="opacity:1;fill:#0044aa;fill-opacity:1;stroke:none;stroke-width:1;stroke-miterlimit:4;stroke-dasharray:none;stroke-dashoffset:0" />
        <path
           inkscape:connector-curvature="0"
           transform="matrix(1.5490651,0,0,1.5490651,-13.34271,-186.38614)"
           id="circle4400"
           d="m 226.14258,477.98047 -0.16797,0.043 c -0.67729,0.5553 -0.0925,1.53948 0.91601,1.64258 0.36506,0.13522 0.79395,0.16847 1.21094,0.14062 a 75.621653,75.621653 0 0 0 0.7461,-1.04492 c -0.79736,-0.40521 -1.73208,-0.6742 -2.70508,-0.78125 z m -103.88477,1.86328 -0.15039,0.10352 c -0.62856,0.65125 0.034,1.98651 0.9336,1.8789 1.03067,-0.45493 0.35388,-2.20376 -0.72266,-1.98242 l -0.0605,0 z m 5.86524,2.61328 c -0.19262,0.004 -0.38637,0.0158 -0.57422,0.0312 -1.08925,0.19257 -0.93402,1.69543 0.3125,1.45703 0.88763,-0.12498 1.76581,-0.5733 1.92383,-1.23242 -0.50099,-0.21292 -1.08428,-0.26776 -1.66211,-0.25586 z m 63.17773,2.32813 -0.11328,0.0273 c -1.43061,0.56111 -2.14981,1.68865 -2.47852,2.76953 -1.43344,1.34171 -3.1558,2.5367 -5.13476,3.47852 l 5.49414,-1.94727 c 0.82243,3.4413 0.41613,6.94404 0.11328,10.4043 l 1.69922,-10.56836 c 1.21822,-1.18062 1.53287,-2.86954 0.47656,-4.16016 l -0.0566,-0.004 z m -61.63867,2.98242 -0.12695,0.125 c -0.50339,0.85811 0.36459,1.75181 1.08984,2.1289 0.68909,0.70906 2.64462,0.12886 1.76172,-0.96679 -0.6067,-0.86789 -1.69943,-1.25453 -2.72461,-1.28711 z m 77.7793,0.97461 c -1.12333,0.34386 -1.43305,1.33218 -1.44922,2.11914 0.005,0.73117 -0.0275,1.67452 1.05664,2.05664 0.94012,0.25838 1.69907,-0.47104 1.95898,-1.02149 0.35204,-0.96061 0.2397,-2.11205 -0.71484,-2.89062 -0.22649,-0.15566 -0.51234,-0.30923 -0.85156,-0.26367 z m -59.35547,3.31445 c -0.9991,-0.006 -1.99707,0.005 -2.9961,0.0117 -0.97309,0.25764 -0.63796,1.15304 -0.1289,1.59375 2.83859,2.63989 5.13855,5.54017 7.60937,8.35156 2.51619,2.98164 5.03845,5.96198 7.61719,8.91797 a 75.621653,75.621653 0 0 0 1.77344,0.15625 l -15.79102,-17.25195 30.52344,-1.23828 c -9.54653,0.28401 -19.06192,-0.63038 -28.60742,-0.54102 z m 40.65039,10.10938 -1.42578,6.20703 a 75.621653,75.621653 0 0 0 0.29687,-0.0762 c 0.37678,-2.0435 0.7527,-4.08732 1.12891,-6.13086 z"
           style="opacity:0.25;fill:url(#radialGradient4434);fill-opacity:1;stroke:none;stroke-width:1;stroke-miterlimit:4;stroke-dasharray:none;stroke-dashoffset:0" />
        <text
           sodipodi:linespacing="125%"
           id="text4442"
           y="588.06604"
           x="624.56201"
           style="font-style:normal;font-weight:normal;font-size:29.17597771px;line-height:125%;font-family:sans-serif;letter-spacing:30.98130226px;word-spacing:0px;fill:#000000;fill-opacity:1;stroke:none;stroke-width:1px;stroke-linecap:butt;stroke-linejoin:miter;stroke-opacity:1"
           xml:space="preserve"><tspan
             dx="0"
             y="588.06604"
             x="624.56201"
             id="tspan4444"
             sodipodi:role="line">PROJECT</tspan></text>
        <path
           transform="matrix(0.70710678,0.70710679,-0.70710679,0.70710678,377.64849,-63.350383)"
           sodipodi:type="star"
           style="opacity:1;fill:#ffffff;fill-opacity:1;stroke:none;stroke-width:1.5;stroke-miterlimit:4;stroke-dasharray:none;stroke-dashoffset:0"
           id="path4450"
           sodipodi:sides="5"
           sodipodi:cx="265.29492"
           sodipodi:cy="424.18686"
           sodipodi:r1="10.983022"
           sodipodi:r2="3.0842414"
           sodipodi:arg1="1.0471976"
           sodipodi:arg2="1.6755161"
           inkscape:flatsided="false"
           inkscape:rounded="0"
           inkscape:randomized="0"
           d="m 270.78643,433.69844 -5.8139,-6.44424 -7.02668,5.09463 4.33223,-7.52072 -7.01665,-5.10845 8.49137,1.79617 2.69016,-8.25183 0.91572,8.63082 8.67926,0.009 -7.92542,3.53797 z" />
        <path
           transform="matrix(0.99450607,0.10467894,-0.10467894,0.99450607,55.681487,-26.5092)"
           sodipodi:type="star"
           style="opacity:1;fill:#ffffff;fill-opacity:1;stroke:none;stroke-width:1.5;stroke-miterlimit:4;stroke-dasharray:none;stroke-dashoffset:0"
           id="path4452"
           sodipodi:sides="5"
           sodipodi:cx="280.85672"
           sodipodi:cy="519.43896"
           sodipodi:r1="10.983022"
           sodipodi:r2="3.0842414"
           sodipodi:arg1="1.0471976"
           sodipodi:arg2="1.6755161"
           inkscape:flatsided="false"
           inkscape:rounded="0"
           inkscape:randomized="0"
           d="m 286.34823,528.95054 -5.8139,-6.44423 -7.02669,5.09463 4.33224,-7.52073 -7.01665,-5.10844 8.49137,1.79616 2.69016,-8.25182 0.91572,8.63082 8.67926,0.009 -7.92543,3.53797 z" />
      </g>
    </g>
  </g>
</svg>
