<?xml version="1.0" encoding="UTF-8" standalone="no"?>
<!-- Created with Inkscape (http://www.inkscape.org/) -->

<svg
   xmlns:dc="http://purl.org/dc/elements/1.1/"
   xmlns:cc="http://creativecommons.org/ns#"
   xmlns:rdf="http://www.w3.org/1999/02/22-rdf-syntax-ns#"
   xmlns:svg="http://www.w3.org/2000/svg"
   xmlns="http://www.w3.org/2000/svg"
   xmlns:sodipodi="http://sodipodi.sourceforge.net/DTD/sodipodi-0.dtd"
   xmlns:inkscape="http://www.inkscape.org/namespaces/inkscape"
   width="190mm"
   height="190mm"
   viewBox="0 0 673.22834 673.22835"
   id="svg2"
   version="1.1"
   inkscape:version="0.91 r13725"
   sodipodi:docname="project-logo-v2-bw.svg"
   inkscape:export-filename="/home/camargo/hydrus/docs/branding/board-backside.png"
   inkscape:export-xdpi="299.95178"
   inkscape:export-ydpi="299.95178">
  <defs
     id="defs4" />
  <sodipodi:namedview
     id="base"
     pagecolor="#ffffff"
     bordercolor="#666666"
     borderopacity="1.0"
     inkscape:pageopacity="0.0"
     inkscape:pageshadow="2"
     inkscape:zoom="1"
     inkscape:cx="291.97924"
     inkscape:cy="209.08106"
     inkscape:document-units="px"
     inkscape:current-layer="g4518"
     showgrid="false"
     inkscape:object-nodes="true"
     inkscape:snap-smooth-nodes="true"
     inkscape:snap-bbox="true"
     inkscape:bbox-nodes="false"
     inkscape:snap-bbox-midpoints="false"
     inkscape:snap-global="false"
     inkscape:window-width="1858"
     inkscape:window-height="1023"
     inkscape:window-x="62"
     inkscape:window-y="28"
     inkscape:window-maximized="1"
     fit-margin-top="0"
     fit-margin-left="0"
     fit-margin-right="0"
     fit-margin-bottom="0" />
  <metadata
     id="metadata7">
    <rdf:RDF>
      <cc:Work
         rdf:about="">
        <dc:format>image/svg+xml</dc:format>
        <dc:type
           rdf:resource="http://purl.org/dc/dcmitype/StillImage" />
        <dc:title></dc:title>
      </cc:Work>
    </rdf:RDF>
  </metadata>
  <g
     inkscape:label="Layer 1"
     inkscape:groupmode="layer"
     id="layer1"
     transform="translate(-19.000001,94.866116)">
    <g
       id="g4319"
       transform="matrix(0.64555067,0,0,0.64555067,8.6133956,120.3217)">
      <circle
         r="0"
         style="opacity:1;fill:#0b2228;fill-opacity:1;stroke:none;stroke-width:1;stroke-miterlimit:4;stroke-dasharray:none;stroke-dashoffset:0"
         id="ellipse4412"
         cx="-70.569305"
         cy="774.05835"
         transform="matrix(0.8660254,-0.5,0.5,0.8660254,0,0)" />
      <g
         id="g4518"
         transform="translate(5.057136,-300.37295)">
        <circle
           style="opacity:1;fill:#000000;fill-opacity:1;stroke:none;stroke-width:1;stroke-miterlimit:4;stroke-dasharray:none;stroke-dashoffset:0"
           id="path4136"
           cx="245.12978"
           cy="488.47031"
           r="117.14286"
           inkscape:export-xdpi="38.080002"
           inkscape:export-ydpi="38.080002" />
        <circle
           style="opacity:1;fill:#ffffff;fill-opacity:1;stroke:none;stroke-width:1;stroke-miterlimit:4;stroke-dasharray:none;stroke-dashoffset:0"
           id="path4147"
           cx="-258.49902"
           cy="508.94806"
           r="1.1632454"
           transform="matrix(0.70710678,-0.70710678,0.70710678,0.70710678,0,0)"
           inkscape:export-xdpi="38.080002"
           inkscape:export-ydpi="38.080002" />
        <circle
           transform="matrix(0.70710678,-0.70710678,0.70710678,0.70710678,0,0)"
           r="2.7123106"
           cy="464.68469"
           cx="-233.17406"
           id="circle4253"
           style="opacity:1;fill:#ffffff;fill-opacity:1;stroke:none;stroke-width:1;stroke-miterlimit:4;stroke-dasharray:none;stroke-dashoffset:0"
           inkscape:export-xdpi="38.080002"
           inkscape:export-ydpi="38.080002" />
        <circle
           style="opacity:1;fill:#ffffff;fill-opacity:1;stroke:none;stroke-width:1;stroke-miterlimit:4;stroke-dasharray:none;stroke-dashoffset:0"
           id="circle4255"
           cx="-239.31767"
           cy="507.32581"
           r="1.1632454"
           transform="matrix(0.70710678,-0.70710678,0.70710678,0.70710678,0,0)"
           inkscape:export-xdpi="38.080002"
           inkscape:export-ydpi="38.080002" />
        <circle
           transform="matrix(0.70710678,-0.70710678,0.70710678,0.70710678,0,0)"
           r="2.7123106"
           cy="531.37842"
           cx="-241.65742"
           id="circle4257"
           style="opacity:1;fill:#ffffff;fill-opacity:1;stroke:none;stroke-width:1;stroke-miterlimit:4;stroke-dasharray:none;stroke-dashoffset:0"
           inkscape:export-xdpi="38.080002"
           inkscape:export-ydpi="38.080002" />
        <path
           style="opacity:1;fill:none;fill-rule:evenodd;stroke:#ffffff;stroke-width:2.32359767;stroke-linecap:butt;stroke-linejoin:miter;stroke-opacity:1"
           d="m 261.79132,446.58296 -43.04393,-46.83178 -38.01453,67.40766 z"
           id="path4267"
           inkscape:connector-curvature="0"
           inkscape:export-xdpi="38.080002"
           inkscape:export-ydpi="38.080002" />
        <circle
           style="opacity:1;fill:#ffffff;fill-opacity:1;stroke:none;stroke-width:1;stroke-miterlimit:4;stroke-dasharray:none;stroke-dashoffset:0"
           id="circle4269"
           cx="-76.109985"
           cy="512.64172"
           r="2.7123106"
           transform="matrix(0.70710678,-0.70710678,0.70710678,0.70710678,0,0)"
           inkscape:export-xdpi="38.080002"
           inkscape:export-ydpi="38.080002" />
        <circle
           transform="matrix(0.70710678,-0.70710678,0.70710678,0.70710678,0,0)"
           r="1.1632454"
           cy="422.63144"
           cx="-192.41145"
           id="circle4271"
           style="opacity:1;fill:#ffffff;fill-opacity:1;stroke:none;stroke-width:1;stroke-miterlimit:4;stroke-dasharray:none;stroke-dashoffset:0"
           inkscape:export-xdpi="38.080002"
           inkscape:export-ydpi="38.080002" />
        <circle
           style="opacity:1;fill:#ffffff;fill-opacity:1;stroke:none;stroke-width:1;stroke-miterlimit:4;stroke-dasharray:none;stroke-dashoffset:0"
           id="circle4273"
           cx="-93.089432"
           cy="473.57965"
           r="1.1632454"
           transform="matrix(0.70710678,-0.70710678,0.70710678,0.70710678,0,0)"
           inkscape:export-xdpi="38.080002"
           inkscape:export-ydpi="38.080002" />
        <circle
           transform="matrix(0.70710678,-0.70710678,0.70710678,0.70710678,0,0)"
           r="2.7123106"
           cy="423.96481"
           cx="-157.70293"
           id="circle4275"
           style="opacity:1;fill:#ffffff;fill-opacity:1;stroke:none;stroke-width:1;stroke-miterlimit:4;stroke-dasharray:none;stroke-dashoffset:0"
           inkscape:export-xdpi="38.080002"
           inkscape:export-ydpi="38.080002" />
        <circle
           style="opacity:1;fill:#ffffff;fill-opacity:1;stroke:none;stroke-width:1;stroke-miterlimit:4;stroke-dasharray:none;stroke-dashoffset:0"
           id="circle4277"
           cx="-73.887543"
           cy="542.79236"
           r="2.7123106"
           transform="matrix(0.70710678,-0.70710678,0.70710678,0.70710678,0,0)"
           inkscape:export-xdpi="38.080002"
           inkscape:export-ydpi="38.080002" />
        <circle
           transform="matrix(0.70710678,-0.70710678,0.70710678,0.70710678,0,0)"
           r="2.7123106"
           cy="536.22058"
           cx="-101.27023"
           id="circle4279"
           style="opacity:1;fill:#ffffff;fill-opacity:1;stroke:none;stroke-width:1;stroke-miterlimit:4;stroke-dasharray:none;stroke-dashoffset:0"
           inkscape:export-xdpi="38.080002"
           inkscape:export-ydpi="38.080002" />
        <circle
           style="opacity:1;fill:#ffffff;fill-opacity:1;stroke:none;stroke-width:1;stroke-miterlimit:4;stroke-dasharray:none;stroke-dashoffset:0"
           id="circle4281"
           cx="-87.838364"
           cy="573.61621"
           r="1.1632454"
           transform="matrix(0.70710678,-0.70710678,0.70710678,0.70710678,0,0)"
           inkscape:export-xdpi="38.080002"
           inkscape:export-ydpi="38.080002" />
        <circle
           transform="matrix(0.70710678,-0.70710678,0.70710678,0.70710678,0,0)"
           r="2.7123106"
           cy="595.151"
           cx="-112.19971"
           id="circle4283"
           style="opacity:1;fill:#ffffff;fill-opacity:1;stroke:none;stroke-width:1;stroke-miterlimit:4;stroke-dasharray:none;stroke-dashoffset:0"
           inkscape:export-xdpi="38.080002"
           inkscape:export-ydpi="38.080002" />
        <circle
           style="opacity:1;fill:#ffffff;fill-opacity:1;stroke:none;stroke-width:1;stroke-miterlimit:4;stroke-dasharray:none;stroke-dashoffset:0"
           id="circle4285"
           cx="-355.97733"
           cy="434.09363"
           transform="matrix(0.25881905,-0.96592583,0.96592583,0.25881905,0,0)"
           r="1.1632454"
           inkscape:export-xdpi="38.080002"
           inkscape:export-ydpi="38.080002" />
        <text
           xml:space="preserve"
           style="font-style:normal;font-variant:normal;font-weight:normal;font-stretch:normal;font-size:156.16433716px;line-height:125%;font-family:'Noto Serif';-inkscape-font-specification:'Noto Serif';letter-spacing:0px;word-spacing:0px;fill:#000000;fill-opacity:1;stroke:none;stroke-width:1px;stroke-linecap:butt;stroke-linejoin:miter;stroke-opacity:1;"
           x="392.96979"
           y="550.69397"
           id="text4315"
           sodipodi:linespacing="125%"><tspan
             sodipodi:role="line"
             id="tspan4317"
             x="392.96979"
             y="550.69397">Hydrus</tspan></text>
        <path
           style="opacity:1;fill:#000000;fill-opacity:1;stroke:none;stroke-width:1.5;stroke-miterlimit:4;stroke-dasharray:none;stroke-dashoffset:0"
           d="m 225.92773,380.52148 c -3.91435,1.99327 -6.10607,6.72462 -8.69726,9.69532 -5.05356,0.25024 -8.73564,-6.6988 -13.66797,-4.75977 -2.44169,4.43456 3.45162,7.71366 5.49023,10.87305 0.23894,6.40236 -10.98791,8.71672 -7.71679,15.83398 5.32085,-2.76028 14.60914,-6.08889 17.125,1.95117 -0.0265,3.05249 3.43738,7.57927 6.13281,4.02149 2.05594,-4.09921 -1.11633,-10.80888 3.32422,-13.4668 3.54999,0.46424 9.54854,1.35132 11.49023,-2.6289 -1.10898,-4.79595 -8.13794,-3.49447 -11.30078,-6.47852 -2.93217,-1.86651 0.94517,-5.34188 0.16395,-8.07067 0.32485,-2.26137 1.77736,-7.52022 -2.34364,-6.97035 z m 40.8418,45.91016 c -4.1856,1.75757 -5.90673,7.25981 -8.125,10.65625 -5.03558,0.98107 -9.48468,-5.76421 -14.2168,-3.26562 -1.85369,4.32085 3.62422,7.33875 6.3086,9.71679 2.10294,6.55387 -9.95542,10.17609 -5.73438,17.08399 4.99107,-3.33175 13.93329,-7.57055 17.23828,0.15429 -0.076,3.30254 4.73136,7.20013 6.61524,3.10547 1.33032,-4.26804 -2.22291,-10.42352 1.78515,-13.50195 3.62549,0.101 9.62266,0.34234 11.17579,-3.81641 -1.68629,-4.73365 -8.71755,-2.56788 -12.1875,-5.4082 -2.62922,-1.71029 0.56258,-5.30576 -0.42416,-7.89345 -0.0789,-2.20033 1.13404,-6.8006 -2.43522,-6.83116 z m -92.91601,21.0918 c -4.19053,2.18007 -0.73011,8.4471 -1.34375,12.03711 2.56596,3.37881 -4.19053,4.05678 -6.11719,4.80664 -3.0016,-0.17428 -9.11189,2.93844 -4.79688,5.87304 3.29346,2.58745 7.79791,-0.31178 10.77539,2.19141 3.05092,4.85864 -1.89068,13.28253 4.93555,15.93555 1.72533,-5.70697 6.08401,-14.65151 13.48047,-10.7461 2.18384,2.1357 7.78706,2.96856 7.19531,-1.48828 -1.45431,-4.35524 -8.3711,-6.83252 -7.18164,-11.85742 2.8368,-2.19467 7.74255,-5.81617 6.26953,-10.01562 -4.31051,-2.6045 -8.42811,3.58093 -12.92578,3.48437 -3.05477,0.23363 -2.84827,-4.49283 -5.22706,-5.87603 -1.43252,-1.51707 -2.51514,-4.62627 -5.06395,-4.34467 z"
           id="path3374"
           inkscape:connector-curvature="0" />
        <path
           style="opacity:1;fill:#ffffff;fill-opacity:1;stroke:none;stroke-width:1.5;stroke-miterlimit:4;stroke-dasharray:none;stroke-dashoffset:0"
           d="M 136.5957 273.79688 L 133.74414 277.66797 L 129.58984 275.24609 L 132.39258 279.1543 L 128.80469 282.35547 L 133.38672 280.89844 L 135.32422 285.30078 L 135.35352 280.49219 L 140.13867 280.00977 L 135.57422 278.49414 L 136.5957 273.79688 z M 163.28906 303.71094 L 160.85938 307.85938 L 156.47461 305.88477 L 159.66992 309.47852 L 156.4375 313.03906 L 160.8418 311.10938 L 163.22852 315.2832 L 162.75586 310.5 L 167.46289 309.51953 L 162.76758 308.49023 L 163.28906 303.71094 z M 107.47656 317.23438 L 108.19727 321.98828 L 103.54883 323.21289 L 108.29297 323.99414 L 108.01953 328.79492 L 110.23047 324.52539 L 114.71094 326.26758 L 111.33203 322.8457 L 114.375 319.12305 L 110.07617 321.27734 L 107.47656 317.23438 z "
           transform="matrix(1.5490651,0,0,1.5490651,11.032392,-32.966981)"
           id="path4448" />
        <circle
           r="2.7123106"
           style="opacity:1;fill:#ffffff;fill-opacity:1;stroke:none;stroke-width:1;stroke-miterlimit:4;stroke-dasharray:none;stroke-dashoffset:0"
           id="circle4398"
           cx="-241.65742"
           cy="531.37842"
           transform="matrix(0.70710678,-0.70710678,0.70710678,0.70710678,0,0)"
           inkscape:export-xdpi="38.080002"
           inkscape:export-ydpi="38.080002" />
        <path
           style="opacity:1;fill:#000000;fill-opacity:1;stroke:none;stroke-width:1;stroke-miterlimit:4;stroke-dasharray:none;stroke-dashoffset:0"
           d="m 362.2359,489.20959 a 6.9714903,6.9714903 0 0 0 -1.61555,0.67429 l -3.38087,1.94687 a 6.9714903,6.9714903 0 0 0 -0.3462,0.21236 c -12.76645,8.37069 -30.05214,9.46533 -43.58658,2.72443 a 6.9714903,6.9714903 0 0 0 -0.17001,-0.0806 c -16.0682,-7.47348 -32.26728,-21.08531 -54.28355,-23.61635 -9.97869,-1.47873 -20.5133,-1.58927 -30.82169,0.95857 a 6.9714903,6.9714903 0 0 0 -3.99755,10.82083 c 8.15407,11.40363 14.56527,25.21575 10.31911,36.6103 -2.62459,5.27913 -7.08167,8.66926 -13.1344,11.17382 -6.12061,2.53264 -13.62242,3.87116 -20.65747,4.76217 -15.79597,1.4395 -30.84761,2.52271 -41.55039,-5.86102 a 6.9714903,6.9714903 0 0 0 -0.23229,-0.17253 c -10.49158,-7.54043 -17.49976,-19.67454 -22.13424,-32.55629 a 6.9714903,6.9714903 0 0 0 -0.0879,-0.22894 c -0.46267,-1.15713 -0.9166,-2.15298 -1.6009,-3.20557 -0.6843,-1.0526 -1.46456,-2.44385 -4.0611,-3.47661 -0.83497,-0.3321 -1.84246,-0.39668 -2.86872,-0.30774 A 117.14286,117.14286 0 0 0 245.12928,605.6112 117.14286,117.14286 0 0 0 362.2359,489.20959 Z"
           id="circle4175"
           inkscape:connector-curvature="0"
           inkscape:export-xdpi="38.080002"
           inkscape:export-ydpi="38.080002" />
        <path
           sodipodi:type="inkscape:offset"
           inkscape:radius="0"
           inkscape:original="M 351.66211 439.82031 C 330.39342 477.61195 296.37179 467.34688 271.87305 469.93164 C 246.18638 472.64174 230.50781 487.24805 230.50781 487.24805 C 230.50781 487.24805 306.27629 520.1804 216.51953 570.61133 C 192.30739 584.21522 164.90493 570.52831 150.41016 557.17773 C 185.60279 605.70598 251.75346 619.83556 303.70117 589.91992 C 355.97834 559.72153 376.74194 494.73702 351.66211 439.82031 z "
           style="opacity:1;fill:#ffffff;fill-opacity:1;stroke:none;stroke-width:1;stroke-miterlimit:4;stroke-dasharray:none;stroke-dashoffset:0"
           id="path6082"
           d="m 351.66211,439.82031 c -21.26869,37.79164 -55.29032,27.52657 -79.78906,30.11133 -25.68667,2.7101 -41.36524,17.31641 -41.36524,17.31641 0,0 75.76848,32.93235 -13.98828,83.36328 -24.21214,13.60389 -51.6146,-0.083 -66.10937,-13.4336 35.19263,48.52825 101.3433,62.65783 153.29101,32.74219 52.27717,-30.19839 73.04077,-95.1829 47.96094,-150.09961 z"
           transform="matrix(0.86602541,0.50000001,-0.50000001,0.86602541,277.07631,-57.12228)"
           inkscape:export-xdpi="38.080002"
           inkscape:export-ydpi="38.080002" />
        <path
           style="opacity:1;fill:#000000;fill-opacity:1;stroke:none;stroke-width:1;stroke-miterlimit:4;stroke-dasharray:none;stroke-dashoffset:0"
           d="M 226.64453 333.77734 A 75.621652 75.621652 0 0 1 188.93164 398.10352 A 75.621652 75.621652 0 0 1 85.630859 370.42578 A 75.621652 75.621652 0 0 1 75.599609 335.45312 A 75.621652 75.621652 0 0 0 85.630859 374.42578 A 75.621652 75.621652 0 0 0 188.93164 402.10352 A 75.621652 75.621652 0 0 0 226.64453 333.77734 z "
           id="circle6164"
           transform="matrix(1.5490651,0,0,1.5490651,11.032392,-32.966981)"
           inkscape:export-xdpi="38.080002"
           inkscape:export-ydpi="38.080002" />
      </g>
    </g>
  </g>
</svg>
